<?xml version="1.0" standalone="no"?>
<!DOCTYPE svg PUBLIC "-//W3C//DTD SVG 20010904//EN" "http://www.w3.org/TR/2001/REC-SVG-20010904/DTD/svg10.dtd">
<!-- Created using Krita: https://krita.org -->
<svg xmlns="http://www.w3.org/2000/svg" 
    xmlns:xlink="http://www.w3.org/1999/xlink"
    xmlns:krita="http://krita.org/namespaces/svg/krita"
    xmlns:sodipodi="http://sodipodi.sourceforge.net/DTD/sodipodi-0.dtd"
    width="460.8pt"
    height="460.8pt"
    viewBox="0 0 460.8 460.8">
<defs/>
<path id="shape0" transform="translate(-29.8442056217289, 91.5361296755919)" fill="#a0008d" fill-rule="evenodd" stroke="#a0008d" stroke-width="36" stroke-linecap="square" stroke-linejoin="bevel" d="M136.458 14.072L343.821 14.072C361.664 14.072 376.128 39.0901 376.128 69.9514L376.128 82.9467C376.128 113.808 361.664 138.826 343.821 138.826L136.458 138.826C118.616 138.826 104.151 113.808 104.151 82.9467L104.151 69.9514C104.151 39.0901 118.616 14.072 136.458 14.072M0 3.54586L101.297 48.646M129.814 12.3679L9.10108 0" sodipodi:nodetypes="ccccccccccccc"/><circle id="shape1" transform="translate(261.36, 280.8)" r="64.08" cx="64.08" cy="64.08" fill="none"/><ellipse id="shape2" transform="translate(194.4, 263.52)" rx="62.28" ry="62.28" cx="62.28" cy="62.28" fill="none"/><circle id="shape3" transform="translate(303.12, 336.24)" r="43.2" cx="43.2" cy="43.2" fill="none"/><circle id="shape4" transform="translate(85.6800093383718, 161.999989056595)" r="131.940004486796" cx="131.940004486796" cy="131.940004486796" fill="none" stroke="#000000" stroke-width="10.8" stroke-linecap="square" stroke-linejoin="bevel"/><path id="shape5" transform="translate(306.719988421455, 350.639986763495)" fill="#000000" fill-rule="evenodd" stroke="#000000" stroke-width="7.2" stroke-linecap="square" stroke-linejoin="bevel" d="M0 39.6L110.88 110.16L141.84 64.08L32.4 0Z" sodipodi:nodetypes="ccccc"/>
</svg>
